<?xml version="1.0" encoding="utf-8"?>
<!-- Generator: Adobe Illustrator 28.3.0, SVG Export Plug-In . SVG Version: 6.00 Build 0)  -->
<svg version="1.1" id="Calque_1" xmlns="http://www.w3.org/2000/svg" xmlns:xlink="http://www.w3.org/1999/xlink" x="0px" y="0px"
	 viewBox="0 0 660.7 126.8" style="enable-background:new 0 0 660.7 126.8;" xml:space="preserve">
<style type="text/css">
	.st0{fill:#EE2737;}
</style>
<g>
	<path class="st0" d="M0,3.1c0,5,0,81.1,0,93.4c0,12.7,1.6,29.2,34.1,29.7c1.2-7.1,2.8-15.8,3.4-20c-7.5-0.6-13.3-2.7-13.3-13.5
		c0-13,0-84.3,0-89.7C20.2,3.1,3,3.1,0,3.1z"/>
	<path class="st0" d="M43.8,3.1c1.3,12.4-1.2,25.7-5.7,35.3c4.8,1.5,10.7,3.4,14.3,4.5c7-8.2,15.2-21.7,12.4-39.8
		C59.5,3.1,48.8,3.1,43.8,3.1z"/>
	<path class="st0" d="M124.1,3.1c19.3,0,50.6,5.1,50.6,39.8c5.7,0,19.9,0,19.9,0V63h-19.9c0,0,0,17.7,0,26.3
		c0,12.1,4.1,16.7,13.5,16.7c5.7,0,11.5-1.1,15.6-2.8c0.9,5.2,2.9,15.5,3.4,18.8c-8.4,3.3-13.8,4.4-22.9,4.4
		c-22,0-33.8-9.9-33.8-36.9c0-33.4,0-36.7,0-46.8c0-11.7-5.5-19.1-25.4-19.1c-13.1,0-18.4,6.8-18.4,12.7c0,8.2,6.4,13.5,20,13.5
		c3,0,5.2,0,7.9-0.1c0,3.5,0,18.8,0,21c-27.6-1.8-33.3,6.4-33.3,18.3c0,14.1,13.4,16,24.6,16c7.4,0,11.6-1.2,16.2-2.5
		c1.4,7.3,3.5,17.5,4.2,21.2c-7.2,2-16.5,2.9-21.7,2.9c-20.2,0-49.6-4-49.6-35.6c0-23.7,15.2-30.2,19.3-32.5
		c-5.1-3.9-13.5-9.3-13.5-23.2S90,3.1,124.1,3.1z"/>
	<path class="st0" d="M207.5,42.9c0,4.3,0,17.1,0,20.1c3.2,0,5.1,0,6.2,0c0,5.6,0,13.1,0,23.7c0,20.6,6.4,39.8,37.3,39.8
		c18.2,0,31.9-3.7,36.4-4.9c0-10.9,0-74.6,0-78.7c-6,0-20,0-24.2,0c0,4,0,58.4,0,62.2c-3.5,0.6-8.2,0.8-11.1,0.8
		c-10.7,0-14.2-6.9-14.2-21.2c0-15.2,0-38.9,0-41.8C234,42.9,209.6,42.9,207.5,42.9z"/>
	<g>
		<path class="st0" d="M352.2,0v41.1c-5.5-2.4-10.4-3.7-17-3.7c-19,0-38.1,11.1-38.1,45s23.5,44.3,44.5,44.3
			c15.7,0,30.1-3.4,34.9-4.9V0H352.2z M352.2,105.2c-1.1,0.2-4,0.8-10.5,0.8c-12,0-20-8.2-20-24.8c0-22.4,12.2-23.4,17.2-23.4
			c5,0,10.1,1.4,13.3,3.4V105.2z"/>
	</g>
	<rect x="391" class="st0" width="24.2" height="22.7"/>
	<rect x="391" y="40.6" class="st0" width="24.2" height="83.9"/>
	<g>
		<path class="st0" d="M504,92.4V42.1c-12.8-3.7-26.1-4.9-34.2-4.9c-22.5,0-43.8,13.4-43.8,45.4c0,25.4,12.3,43.7,37.8,43.7
			c6.8,0,14-0.8,24.7-8.1c5,5.3,14,8.2,24.8,8.1c0.8-5.1,2.5-15.7,3.2-20.1C508,105.3,504,104.1,504,92.4z M467.1,106
			c-8.4,0-16.7-5.4-16.7-23.5c0-15.1,7.2-24.7,19.5-24.7c3.2,0,6,0.1,10.1,0.8V90c0,3.5,0.2,9.5,1,12
			C474.4,105.9,469.9,106,467.1,106z"/>
	</g>
	<path class="st0" d="M657,104.5c-1.2,0.3-2.3,0.6-3.6,0.8c-2.8,0.5-5.4,0.7-8,0.7c-5.4,0-9-1.5-10.8-4.5c-1.8-3-2.7-7.1-2.7-12.2
		V63h22.3V42.9h-22.4V21.1h-24.2v68.6c0,5.5,0.5,10.6,1.5,15.1c1,4.5,2.8,8.4,5.4,11.6c2.6,3.2,6.1,5.7,10.4,7.5s9.8,2.7,16.4,2.7
		c5.2,0,9.6-0.4,13.2-1.3c2.2-0.5,4.2-1.1,6.1-1.8L657,104.5z"/>
	<path class="st0" d="M524,42.1c8.3-2.4,22-4.9,36.4-4.9c29.6,0,37.3,17.3,37.3,38.2c0,26.1,0,44.6,0,49.1c-6,0-19.2,0-24.2,0
		c0-6.3,0-33,0-44.9c0-14.3-2.4-21.8-14.6-21.8c-4.4,0-9,0.5-10.7,0.8c0,2.2,0,60.6,0,65.9c-5.2,0-20.9,0-24.2,0
		C524,119.4,524,46.3,524,42.1z"/>
</g>
</svg>
